<svg xmlns="http://www.w3.org/2000/svg" width="38.591" height="28.222"><switch><g><path d="M37.544 11.892l-.103-.606h-4.287l.137.809c.286 1.713.467 3.49.54 5.29h-2.396v-6.099c0-1.009-.821-1.83-1.83-1.83h-1.22a.61.61 0 01-.61-.61v-1.22c0-1.009-.821-1.83-1.83-1.83h-4.881V3.967h7.322V.307H10.079v3.66H17.4v1.829h-4.127c-.698 0-1.325.387-1.638 1.011l-.545 1.091a.606.606 0 01-.545.338H7.638c-1.009 0-1.83.82-1.83 1.829v4.27h-1.83v-4.88H.316v13.418h3.661v-4.879h1.83v4.879c0 1.008.821 1.83 1.83 1.83h3.156c.16 0 .318.065.431.179l2.336 2.335c.345.346.805.536 1.294.536h14.748c1.009 0 1.83-.82 1.83-1.829v-4.879h2.395a42.865 42.865 0 01-.387 4.201l-.271 1.898h4.284l.246-1.725a44.361 44.361 0 00-.155-13.527zM5.808 16.774H2.757v4.879h-1.22V10.675h1.22v4.879h3.051v1.22zm5.491-14.028v-1.22h15.864v1.22h-7.322v3.049h-1.22V2.746h-7.322zM9.468 23.483h-1.83a.61.61 0 01-.61-.61V10.065a.61.61 0 01.61-.61h1.83v3.049h2.441a.61.61 0 01.61.61v6.099a.61.61 0 01-.61.61H9.468v3.66zm6.102 3.049h-.715a.614.614 0 01-.431-.179l-2.336-2.334a1.815 1.815 0 00-1.294-.536h-.105v-2.44h1.22c1.009 0 1.83-.821 1.83-1.829v-6.099c0-1.009-.821-1.83-1.83-1.83h-1.22v-1.84a1.81 1.81 0 001.493-1.001l.546-1.091a.606.606 0 01.545-.337h2.297v19.516zm4.881 0h-1.22v-2.439h-1.22v2.439h-1.22v-6.708h1.22v3.049h1.22v-3.049h1.22v6.708zm2.441 0h-1.22v-6.708h1.22v6.708zm2.44 0h-1.22v-6.708h1.22v6.708zm4.881-.61c0 .335-.273.61-.61.61h-.61v-4.269h-1.22v4.269h-1.22v-6.708h1.22v1.219h1.22v-1.219h1.22v6.098zm0-7.318H16.79v-1.219h13.423v1.219zm-8.542-2.44v-2.439h3.661v2.439h-3.661zm8.542 0h-3.661v-3.66h-6.101v3.66H16.79v-5.489h8.542v-1.22H16.79V7.016h9.152a.61.61 0 01.61.61v1.22c0 1.008.821 1.83 1.83 1.83h1.22a.61.61 0 01.61.61v4.878zm6.279 9.08l-.096.678h-1.818l.072-.505c.231-1.614.372-3.284.422-4.966l.018-.627h-3.656v-1.22h3.653l-.016-.626a44.564 44.564 0 00-.48-5.473h1.816a43.17 43.17 0 01.519 6.659 43.103 43.103 0 01-.434 6.08zm-27.024-8.47h1.22v-1.22h-1.22v1.22zm8.542-1.83h1.22v-1.219h-1.22v1.219zm9.763 0h1.22v-1.219h-1.22v1.219z" fill="#afafaf"/></g></switch></svg>