<svg xmlns="http://www.w3.org/2000/svg" width="37.625" height="37.75"><switch><g><path d="M18.652 5.241H6.761c-.983 0-1.784.801-1.784 1.786v5.949c0 .985.8 1.785 1.784 1.785h11.891c.983 0 1.784-.8 1.784-1.785V7.027c0-.985-.801-1.786-1.784-1.786zm.594 7.735a.596.596 0 01-.594.596H6.761a.596.596 0 01-.595-.596V7.027c0-.329.267-.595.595-.595h11.891c.328 0 .594.266.594.595v5.949zm15.353 8.008l-6.727-1.123a1.779 1.779 0 01-1.491-1.761v-1.554h1.189V9.039l-4.756-2.38V4.052h1.189V.482H1.41v3.57h1.189v29.81a2.98 2.98 0 00-2.378 2.915v.595h24.972v-.595a2.98 2.98 0 00-2.378-2.915v-1.905a2.979 2.979 0 002.378-2.915v-1.19h2.378v-1.08c.69.245 1.189.9 1.189 1.675v4.76a4.169 4.169 0 004.162 4.165 4.169 4.169 0 004.162-4.165v-9.289a2.965 2.965 0 00-2.485-2.934zm-8.218-5.627h-1.189v-1.19h1.189v1.19zm0-5.582v3.202h-1.189v-2.152l-2.378-1.19V7.989l3.567 1.786zm-5.945-6.913v1.19h1.189v29.75H7.355v1.191h14.864c.775 0 1.437.498 1.682 1.19H1.511a1.789 1.789 0 011.682-1.19h2.973v-1.191H3.788V4.052h15.459v-1.19H2.599V1.671h20.215v1.191h-2.378zm3.567 26.18c0 .776-.497 1.437-1.189 1.683v-8.119c.69.246 1.189.9 1.189 1.675v4.761zm2.378-2.38h-1.189v-1.19h1.189v1.19zm9.513 6.545a2.977 2.977 0 01-2.973 2.975 2.977 2.977 0 01-2.973-2.975v-4.76a2.98 2.98 0 00-2.378-2.915v-1.251h-2.378a2.98 2.98 0 00-2.378-2.915V10.964l1.189.595v4.987h1.189V18.1a2.965 2.965 0 002.484 2.934l6.727 1.123a1.779 1.779 0 011.491 1.76v9.29zM12.706 17.002l-3.2 6.404a3.485 3.485 0 003.114 5.04h.174a3.486 3.486 0 003.114-5.04l-3.202-6.404zm.087 10.255h-.174a2.295 2.295 0 01-2.049-3.318l2.136-4.276 2.136 4.276a2.294 2.294 0 01-2.049 3.318zM7.95 8.811h7.729v-1.19H7.95v1.19zm8.918 0h1.189v-1.19h-1.189v1.19z" fill="#afafaf"/></g></switch></svg>