<svg xmlns="http://www.w3.org/2000/svg" width="38.466" height="37.372"><switch><g><path d="M34.893 29.099a7.755 7.755 0 00-5.91-4.943l-5.579-.986v-.69h-.062a7.75 7.75 0 003.424-4.8 2.968 2.968 0 002.584-2.936V10.58C29.35 5.003 24.815.465 19.241.465S9.133 5.002 9.133 10.58v4.165a2.969 2.969 0 002.584 2.936 7.747 7.747 0 003.424 4.8h-.062v.69l-5.579.985a7.754 7.754 0 00-5.91 4.943L.55 37.355h37.383l-3.04-8.256zm-7.946-12.671c.011-.164.025-.326.025-.493v-2.866c.69.247 1.189.901 1.189 1.675 0 .784-.511 1.445-1.214 1.684zm-16.625-1.683c0-.775.499-1.428 1.189-1.675v2.866c0 .167.014.329.025.493a1.784 1.784 0 01-1.214-1.684zm2.379 1.19v-4.76c0-.329.266-.595.595-.595h8.919V9.39h-8.919c-.984 0-1.784.801-1.784 1.785v.655c-.442.09-.842.287-1.189.55v-1.8c0-4.921 4.001-8.925 8.919-8.925s8.919 4.004 8.919 8.925v1.801a2.942 2.942 0 00-1.189-.55v-.656c0-.984-.8-1.785-1.784-1.785h-1.784v1.19h1.784c.328 0 .595.266.595.595v4.76c0 3.608-2.934 6.545-6.541 6.545s-6.541-2.937-6.541-6.545zm9.514 7.138v.511c-.102.31-.727 1.872-2.973 1.872-2.245 0-2.869-1.554-2.973-1.872v-.511a7.69 7.69 0 005.946 0zM9.707 25.327l2.715-.479.638.639-3.3 3.302-2.488-2.49a6.534 6.534 0 012.435-.972zm1.709 5.119l-.815-.816 3.3-3.302.816.816-3.301 3.302zm3.944-.872a1.072 1.072 0 11-1.516 1.517l-.695-.695 1.517-1.517.694.695zM2.256 36.165l2.45-6.655c.35-.95.921-1.781 1.634-2.461l4.313 4.316a1.767 1.767 0 00.343 2l2.797 2.8H2.256zm14.13-.747l-.421.421a.577.577 0 01-.815.001l-3.313-3.315a.578.578 0 010-.816l.472-.471.695.695c.441.441 1.02.661 1.599.661s1.158-.221 1.598-.661a2.268 2.268 0 000-3.2l-.695-.695.472-.472a.577.577 0 01.816-.001l3.313 3.316a.576.576 0 010 .815l-.422.422-1.226-1.148-.813.869 1.197 1.12-1.615 1.617-1.12-1.198-.869.813 1.147 1.227zm.936.747l3.204-3.207.815.816-2.389 2.391h-1.63zm3.313 0l1.548-1.549 1.548 1.549h-3.096zm.654-4.126a1.767 1.767 0 00-.343-2l-3.313-3.315a1.762 1.762 0 00-1.999-.344l-1.784-1.785 1.438-.253c.471.998 1.669 2.303 3.952 2.303s3.481-1.305 3.952-2.302l5.583.985a6.565 6.565 0 015.001 4.183l2.45 6.655H25.413l-4.124-4.127z" fill-rule="evenodd" clip-rule="evenodd" fill="#afafaf"/></g></switch></svg>