<svg xmlns="http://www.w3.org/2000/svg" width="26.381" height="37.25"><switch><g><path d="M15.701 11.435l1.234-3.211a4.922 4.922 0 00-.534-6.934 4.908 4.908 0 00-6.926.535 4.924 4.924 0 000 6.399l1.234 3.212C3.726 12.812-.821 19.595.553 26.585a12.891 12.891 0 0012.652 10.411c7.118.003 12.89-5.772 12.892-12.898a12.9 12.9 0 00-10.396-12.663zM9.522 5.033a3.69 3.69 0 013.684-3.688 3.686 3.686 0 013.684 3.688 3.686 3.686 0 01-3.684 3.688 3.686 3.686 0 01-3.684-3.688zm6.753 20.285a1.843 1.843 0 00-1.842 1.844v1.844a1.228 1.228 0 11-2.456 0v-1.844a1.843 1.843 0 10-3.684 0v1.844a1.228 1.228 0 11-2.456 0v-9.22a1.228 1.228 0 112.456 0v1.844c0 1.018.825 1.844 1.842 1.844a1.843 1.843 0 001.842-1.844v-.48a1.813 1.813 0 002.456 0v.479c0 1.018.825 1.844 1.842 1.844a1.843 1.843 0 001.842-1.844v-1.844a1.228 1.228 0 112.456 0v9.22a1.228 1.228 0 11-2.456 0v-1.844a1.841 1.841 0 00-1.842-1.843zM13.819 12.91v6.875a.614.614 0 11-1.228 0V12.91l-1.284-3.342a4.9 4.9 0 003.796 0l-1.284 3.342zm-2.663 22.684C4.813 34.461.589 28.396 1.721 22.045a11.673 11.673 0 019.435-9.446v-.001l.208.54v5.04a2.453 2.453 0 00-.614 1.607v1.844a.615.615 0 11-1.228 0v-1.844c0-1.357-1.1-2.458-2.456-2.458a2.458 2.458 0 00-2.456 2.458v9.22a2.457 2.457 0 104.912 0v-1.844a.615.615 0 111.228 0v1.844a2.457 2.457 0 104.912 0v-1.844a.615.615 0 111.228 0v1.844a2.457 2.457 0 104.912 0v-9.22a2.457 2.457 0 10-4.912 0v1.844a.615.615 0 11-1.228 0v-1.844a2.461 2.461 0 00-.614-1.606v-5.04l.207-.539c6.343 1.133 10.567 7.199 9.435 13.548-1.132 6.35-7.191 10.579-13.534 9.446z" fill-rule="evenodd" clip-rule="evenodd" fill="#afafaf"/></g></switch></svg>